<mxfile host="app.diagrams.net" modified="2020-10-30T11:06:53.427Z" agent="5.0 (Windows NT 10.0; Win64; x64) AppleWebKit/537.36 (KHTML, like Gecko) Chrome/86.0.4240.111 Safari/537.36 Edg/86.0.622.51" etag="BM41ksHt5PEurxOfspP7" version="13.8.5" type="github">
  <diagram id="C5RBs43oDa-KdzZeNtuy" name="Page-1">
    <mxGraphModel dx="1421" dy="794" grid="1" gridSize="10" guides="1" tooltips="1" connect="1" arrows="1" fold="1" page="1" pageScale="1" pageWidth="827" pageHeight="1169" math="0" shadow="0">
      <root>
        <mxCell id="WIyWlLk6GJQsqaUBKTNV-0" />
        <mxCell id="WIyWlLk6GJQsqaUBKTNV-1" parent="WIyWlLk6GJQsqaUBKTNV-0" />
        <mxCell id="qdFF0etR3aUKThfLzW1a-10" value="Professional" style="shape=table;html=1;whiteSpace=wrap;startSize=30;container=1;collapsible=0;childLayout=tableLayout;fixedRows=1;rowLines=0;fontStyle=1;align=center;" vertex="1" parent="WIyWlLk6GJQsqaUBKTNV-1">
          <mxGeometry x="350" y="60" width="180" height="160" as="geometry" />
        </mxCell>
        <mxCell id="qdFF0etR3aUKThfLzW1a-11" value="" style="shape=partialRectangle;html=1;whiteSpace=wrap;collapsible=0;dropTarget=0;pointerEvents=0;fillColor=none;top=0;left=0;bottom=1;right=0;points=[[0,0.5],[1,0.5]];portConstraint=eastwest;" vertex="1" parent="qdFF0etR3aUKThfLzW1a-10">
          <mxGeometry y="30" width="180" height="40" as="geometry" />
        </mxCell>
        <mxCell id="qdFF0etR3aUKThfLzW1a-12" value="1" style="shape=partialRectangle;html=1;whiteSpace=wrap;connectable=0;fillColor=none;top=0;left=0;bottom=0;right=0;overflow=hidden;" vertex="1" parent="qdFF0etR3aUKThfLzW1a-11">
          <mxGeometry width="40" height="40" as="geometry" />
        </mxCell>
        <mxCell id="qdFF0etR3aUKThfLzW1a-13" value="World Ranking" style="shape=partialRectangle;html=1;whiteSpace=wrap;connectable=0;fillColor=#e1d5e7;top=0;left=0;bottom=0;right=0;align=left;spacingLeft=6;overflow=hidden;strokeColor=#9673a6;" vertex="1" parent="qdFF0etR3aUKThfLzW1a-11">
          <mxGeometry x="40" width="140" height="40" as="geometry" />
        </mxCell>
        <mxCell id="qdFF0etR3aUKThfLzW1a-14" value="" style="shape=partialRectangle;html=1;whiteSpace=wrap;collapsible=0;dropTarget=0;pointerEvents=0;fillColor=none;top=0;left=0;bottom=0;right=0;points=[[0,0.5],[1,0.5]];portConstraint=eastwest;backgroundOutline=0;" vertex="1" parent="qdFF0etR3aUKThfLzW1a-10">
          <mxGeometry y="70" width="180" height="30" as="geometry" />
        </mxCell>
        <mxCell id="qdFF0etR3aUKThfLzW1a-15" value="2" style="shape=partialRectangle;html=1;whiteSpace=wrap;connectable=0;fillColor=none;top=0;left=0;bottom=0;right=0;overflow=hidden;" vertex="1" parent="qdFF0etR3aUKThfLzW1a-14">
          <mxGeometry width="40" height="30" as="geometry" />
        </mxCell>
        <mxCell id="qdFF0etR3aUKThfLzW1a-16" value="Name" style="shape=partialRectangle;html=1;whiteSpace=wrap;connectable=0;fillColor=#f8cecc;top=0;left=0;bottom=0;right=0;align=left;spacingLeft=6;overflow=hidden;strokeColor=#b85450;" vertex="1" parent="qdFF0etR3aUKThfLzW1a-14">
          <mxGeometry x="40" width="140" height="30" as="geometry" />
        </mxCell>
        <mxCell id="qdFF0etR3aUKThfLzW1a-17" value="" style="shape=partialRectangle;html=1;whiteSpace=wrap;collapsible=0;dropTarget=0;pointerEvents=0;fillColor=none;top=0;left=0;bottom=0;right=0;points=[[0,0.5],[1,0.5]];portConstraint=eastwest;" vertex="1" parent="qdFF0etR3aUKThfLzW1a-10">
          <mxGeometry y="100" width="180" height="30" as="geometry" />
        </mxCell>
        <mxCell id="qdFF0etR3aUKThfLzW1a-18" value="3" style="shape=partialRectangle;html=1;whiteSpace=wrap;connectable=0;fillColor=none;top=0;left=0;bottom=0;right=0;overflow=hidden;" vertex="1" parent="qdFF0etR3aUKThfLzW1a-17">
          <mxGeometry width="40" height="30" as="geometry" />
        </mxCell>
        <mxCell id="qdFF0etR3aUKThfLzW1a-19" value="Prof-Runner Number" style="shape=partialRectangle;html=1;whiteSpace=wrap;connectable=0;fillColor=#fff2cc;top=0;left=0;bottom=0;right=0;align=left;spacingLeft=6;overflow=hidden;strokeColor=#d6b656;" vertex="1" parent="qdFF0etR3aUKThfLzW1a-17">
          <mxGeometry x="40" width="140" height="30" as="geometry" />
        </mxCell>
        <mxCell id="qdFF0etR3aUKThfLzW1a-20" value="Amateurs" style="shape=table;html=1;whiteSpace=wrap;startSize=30;container=1;collapsible=0;childLayout=tableLayout;fixedRows=1;rowLines=0;fontStyle=1;align=center;" vertex="1" parent="WIyWlLk6GJQsqaUBKTNV-1">
          <mxGeometry x="370" y="270" width="180" height="140" as="geometry" />
        </mxCell>
        <mxCell id="qdFF0etR3aUKThfLzW1a-21" value="" style="shape=partialRectangle;html=1;whiteSpace=wrap;collapsible=0;dropTarget=0;pointerEvents=0;fillColor=none;top=0;left=0;bottom=1;right=0;points=[[0,0.5],[1,0.5]];portConstraint=eastwest;" vertex="1" parent="qdFF0etR3aUKThfLzW1a-20">
          <mxGeometry y="30" width="180" height="30" as="geometry" />
        </mxCell>
        <mxCell id="qdFF0etR3aUKThfLzW1a-22" value="1" style="shape=partialRectangle;html=1;whiteSpace=wrap;connectable=0;fillColor=none;top=0;left=0;bottom=0;right=0;overflow=hidden;" vertex="1" parent="qdFF0etR3aUKThfLzW1a-21">
          <mxGeometry width="40" height="30" as="geometry" />
        </mxCell>
        <mxCell id="qdFF0etR3aUKThfLzW1a-23" value="Name" style="shape=partialRectangle;html=1;whiteSpace=wrap;connectable=0;fillColor=#f8cecc;top=0;left=0;bottom=0;right=0;align=left;spacingLeft=6;overflow=hidden;strokeColor=#b85450;" vertex="1" parent="qdFF0etR3aUKThfLzW1a-21">
          <mxGeometry x="40" width="140" height="30" as="geometry" />
        </mxCell>
        <mxCell id="qdFF0etR3aUKThfLzW1a-24" value="" style="shape=partialRectangle;html=1;whiteSpace=wrap;collapsible=0;dropTarget=0;pointerEvents=0;fillColor=none;top=0;left=0;bottom=0;right=0;points=[[0,0.5],[1,0.5]];portConstraint=eastwest;" vertex="1" parent="qdFF0etR3aUKThfLzW1a-20">
          <mxGeometry y="60" width="180" height="20" as="geometry" />
        </mxCell>
        <mxCell id="qdFF0etR3aUKThfLzW1a-25" value="2" style="shape=partialRectangle;html=1;whiteSpace=wrap;connectable=0;fillColor=none;top=0;left=0;bottom=0;right=0;overflow=hidden;" vertex="1" parent="qdFF0etR3aUKThfLzW1a-24">
          <mxGeometry width="40" height="20" as="geometry" />
        </mxCell>
        <mxCell id="qdFF0etR3aUKThfLzW1a-26" value="Runner Number" style="shape=partialRectangle;html=1;whiteSpace=wrap;connectable=0;fillColor=#d5e8d4;top=0;left=0;bottom=0;right=0;align=left;spacingLeft=6;overflow=hidden;strokeColor=#82b366;" vertex="1" parent="qdFF0etR3aUKThfLzW1a-24">
          <mxGeometry x="40" width="140" height="20" as="geometry" />
        </mxCell>
        <mxCell id="qdFF0etR3aUKThfLzW1a-27" value="" style="shape=partialRectangle;html=1;whiteSpace=wrap;collapsible=0;dropTarget=0;pointerEvents=0;fillColor=none;top=0;left=0;bottom=0;right=0;points=[[0,0.5],[1,0.5]];portConstraint=eastwest;" vertex="1" parent="qdFF0etR3aUKThfLzW1a-20">
          <mxGeometry y="80" width="180" height="30" as="geometry" />
        </mxCell>
        <mxCell id="qdFF0etR3aUKThfLzW1a-28" value="3" style="shape=partialRectangle;html=1;whiteSpace=wrap;connectable=0;fillColor=none;top=0;left=0;bottom=0;right=0;overflow=hidden;" vertex="1" parent="qdFF0etR3aUKThfLzW1a-27">
          <mxGeometry width="40" height="30" as="geometry" />
        </mxCell>
        <mxCell id="qdFF0etR3aUKThfLzW1a-29" value="Charity" style="shape=partialRectangle;html=1;whiteSpace=wrap;connectable=0;fillColor=#ffe6cc;top=0;left=0;bottom=0;right=0;align=left;spacingLeft=6;overflow=hidden;strokeColor=#d79b00;" vertex="1" parent="qdFF0etR3aUKThfLzW1a-27">
          <mxGeometry x="40" width="140" height="30" as="geometry" />
        </mxCell>
        <mxCell id="qdFF0etR3aUKThfLzW1a-30" value="Fancy Dress Runners" style="shape=table;html=1;whiteSpace=wrap;startSize=30;container=1;collapsible=0;childLayout=tableLayout;fixedRows=1;rowLines=0;fontStyle=1;align=center;" vertex="1" parent="WIyWlLk6GJQsqaUBKTNV-1">
          <mxGeometry x="400" y="460" width="180" height="160" as="geometry" />
        </mxCell>
        <mxCell id="qdFF0etR3aUKThfLzW1a-31" value="" style="shape=partialRectangle;html=1;whiteSpace=wrap;collapsible=0;dropTarget=0;pointerEvents=0;fillColor=none;top=0;left=0;bottom=1;right=0;points=[[0,0.5],[1,0.5]];portConstraint=eastwest;" vertex="1" parent="qdFF0etR3aUKThfLzW1a-30">
          <mxGeometry y="30" width="180" height="30" as="geometry" />
        </mxCell>
        <mxCell id="qdFF0etR3aUKThfLzW1a-32" value="1" style="shape=partialRectangle;html=1;whiteSpace=wrap;connectable=0;fillColor=none;top=0;left=0;bottom=0;right=0;overflow=hidden;" vertex="1" parent="qdFF0etR3aUKThfLzW1a-31">
          <mxGeometry width="40" height="30" as="geometry" />
        </mxCell>
        <mxCell id="qdFF0etR3aUKThfLzW1a-33" value="Name" style="shape=partialRectangle;html=1;whiteSpace=wrap;connectable=0;fillColor=#f8cecc;top=0;left=0;bottom=0;right=0;align=left;spacingLeft=6;overflow=hidden;strokeColor=#b85450;" vertex="1" parent="qdFF0etR3aUKThfLzW1a-31">
          <mxGeometry x="40" width="140" height="30" as="geometry" />
        </mxCell>
        <mxCell id="qdFF0etR3aUKThfLzW1a-34" value="" style="shape=partialRectangle;html=1;whiteSpace=wrap;collapsible=0;dropTarget=0;pointerEvents=0;fillColor=none;top=0;left=0;bottom=0;right=0;points=[[0,0.5],[1,0.5]];portConstraint=eastwest;" vertex="1" parent="qdFF0etR3aUKThfLzW1a-30">
          <mxGeometry y="60" width="180" height="30" as="geometry" />
        </mxCell>
        <mxCell id="qdFF0etR3aUKThfLzW1a-35" value="2" style="shape=partialRectangle;html=1;whiteSpace=wrap;connectable=0;fillColor=none;top=0;left=0;bottom=0;right=0;overflow=hidden;" vertex="1" parent="qdFF0etR3aUKThfLzW1a-34">
          <mxGeometry width="40" height="30" as="geometry" />
        </mxCell>
        <mxCell id="qdFF0etR3aUKThfLzW1a-36" value="Runner Number" style="shape=partialRectangle;html=1;whiteSpace=wrap;connectable=0;fillColor=#d5e8d4;top=0;left=0;bottom=0;right=0;align=left;spacingLeft=6;overflow=hidden;strokeColor=#82b366;" vertex="1" parent="qdFF0etR3aUKThfLzW1a-34">
          <mxGeometry x="40" width="140" height="30" as="geometry" />
        </mxCell>
        <mxCell id="qdFF0etR3aUKThfLzW1a-37" value="" style="shape=partialRectangle;html=1;whiteSpace=wrap;collapsible=0;dropTarget=0;pointerEvents=0;fillColor=none;top=0;left=0;bottom=0;right=0;points=[[0,0.5],[1,0.5]];portConstraint=eastwest;" vertex="1" parent="qdFF0etR3aUKThfLzW1a-30">
          <mxGeometry y="90" width="180" height="30" as="geometry" />
        </mxCell>
        <mxCell id="qdFF0etR3aUKThfLzW1a-38" value="3" style="shape=partialRectangle;html=1;whiteSpace=wrap;connectable=0;fillColor=none;top=0;left=0;bottom=0;right=0;overflow=hidden;" vertex="1" parent="qdFF0etR3aUKThfLzW1a-37">
          <mxGeometry width="40" height="30" as="geometry" />
        </mxCell>
        <mxCell id="qdFF0etR3aUKThfLzW1a-39" value="Dress Description" style="shape=partialRectangle;html=1;whiteSpace=wrap;connectable=0;fillColor=#a20025;top=0;left=0;bottom=0;right=0;align=left;spacingLeft=6;overflow=hidden;strokeColor=#6F0000;fontColor=#ffffff;" vertex="1" parent="qdFF0etR3aUKThfLzW1a-37">
          <mxGeometry x="40" width="140" height="30" as="geometry" />
        </mxCell>
        <mxCell id="qdFF0etR3aUKThfLzW1a-44" style="shape=partialRectangle;html=1;whiteSpace=wrap;collapsible=0;dropTarget=0;pointerEvents=0;fillColor=none;top=0;left=0;bottom=0;right=0;points=[[0,0.5],[1,0.5]];portConstraint=eastwest;" vertex="1" parent="qdFF0etR3aUKThfLzW1a-30">
          <mxGeometry y="120" width="180" height="30" as="geometry" />
        </mxCell>
        <mxCell id="qdFF0etR3aUKThfLzW1a-45" value="4" style="shape=partialRectangle;html=1;whiteSpace=wrap;connectable=0;fillColor=none;top=0;left=0;bottom=0;right=0;overflow=hidden;" vertex="1" parent="qdFF0etR3aUKThfLzW1a-44">
          <mxGeometry width="40" height="30" as="geometry" />
        </mxCell>
        <mxCell id="qdFF0etR3aUKThfLzW1a-46" value="Charity" style="shape=partialRectangle;html=1;whiteSpace=wrap;connectable=0;fillColor=#ffe6cc;top=0;left=0;bottom=0;right=0;align=left;spacingLeft=6;overflow=hidden;strokeColor=#d79b00;" vertex="1" parent="qdFF0etR3aUKThfLzW1a-44">
          <mxGeometry x="40" width="140" height="30" as="geometry" />
        </mxCell>
        <mxCell id="qdFF0etR3aUKThfLzW1a-52" style="edgeStyle=orthogonalEdgeStyle;rounded=0;orthogonalLoop=1;jettySize=auto;html=1;entryX=0;entryY=0.5;entryDx=0;entryDy=0;" edge="1" parent="WIyWlLk6GJQsqaUBKTNV-1" source="qdFF0etR3aUKThfLzW1a-110" target="qdFF0etR3aUKThfLzW1a-24">
          <mxGeometry relative="1" as="geometry" />
        </mxCell>
        <mxCell id="qdFF0etR3aUKThfLzW1a-125" style="edgeStyle=orthogonalEdgeStyle;rounded=0;orthogonalLoop=1;jettySize=auto;html=1;entryX=-0.011;entryY=0.733;entryDx=0;entryDy=0;entryPerimeter=0;" edge="1" parent="WIyWlLk6GJQsqaUBKTNV-1" source="qdFF0etR3aUKThfLzW1a-47" target="qdFF0etR3aUKThfLzW1a-114">
          <mxGeometry relative="1" as="geometry" />
        </mxCell>
        <mxCell id="qdFF0etR3aUKThfLzW1a-47" value="User" style="shape=umlActor;verticalLabelPosition=bottom;verticalAlign=top;html=1;outlineConnect=0;" vertex="1" parent="WIyWlLk6GJQsqaUBKTNV-1">
          <mxGeometry x="30" y="110" width="30" height="60" as="geometry" />
        </mxCell>
        <mxCell id="qdFF0etR3aUKThfLzW1a-124" style="edgeStyle=orthogonalEdgeStyle;rounded=0;orthogonalLoop=1;jettySize=auto;html=1;entryX=-0.017;entryY=0.167;entryDx=0;entryDy=0;entryPerimeter=0;" edge="1" parent="WIyWlLk6GJQsqaUBKTNV-1" source="qdFF0etR3aUKThfLzW1a-48" target="qdFF0etR3aUKThfLzW1a-117">
          <mxGeometry relative="1" as="geometry" />
        </mxCell>
        <mxCell id="qdFF0etR3aUKThfLzW1a-48" value="User" style="shape=umlActor;verticalLabelPosition=bottom;verticalAlign=top;html=1;outlineConnect=0;" vertex="1" parent="WIyWlLk6GJQsqaUBKTNV-1">
          <mxGeometry x="40" y="520" width="30" height="60" as="geometry" />
        </mxCell>
        <mxCell id="qdFF0etR3aUKThfLzW1a-134" style="edgeStyle=orthogonalEdgeStyle;rounded=0;orthogonalLoop=1;jettySize=auto;html=1;entryX=1.017;entryY=0.3;entryDx=0;entryDy=0;entryPerimeter=0;" edge="1" parent="WIyWlLk6GJQsqaUBKTNV-1" source="qdFF0etR3aUKThfLzW1a-49" target="qdFF0etR3aUKThfLzW1a-94">
          <mxGeometry relative="1" as="geometry">
            <Array as="points">
              <mxPoint x="695" y="650" />
              <mxPoint x="770" y="650" />
              <mxPoint x="770" y="789" />
            </Array>
          </mxGeometry>
        </mxCell>
        <mxCell id="qdFF0etR3aUKThfLzW1a-135" style="edgeStyle=orthogonalEdgeStyle;rounded=0;orthogonalLoop=1;jettySize=auto;html=1;entryX=0.889;entryY=0.065;entryDx=0;entryDy=0;entryPerimeter=0;" edge="1" parent="WIyWlLk6GJQsqaUBKTNV-1" source="qdFF0etR3aUKThfLzW1a-49" target="qdFF0etR3aUKThfLzW1a-73">
          <mxGeometry relative="1" as="geometry">
            <mxPoint x="680" y="420" as="sourcePoint" />
            <Array as="points">
              <mxPoint x="695" y="650" />
              <mxPoint x="490" y="650" />
            </Array>
          </mxGeometry>
        </mxCell>
        <mxCell id="qdFF0etR3aUKThfLzW1a-136" style="edgeStyle=orthogonalEdgeStyle;rounded=0;orthogonalLoop=1;jettySize=auto;html=1;" edge="1" parent="WIyWlLk6GJQsqaUBKTNV-1" source="qdFF0etR3aUKThfLzW1a-49" target="qdFF0etR3aUKThfLzW1a-61">
          <mxGeometry relative="1" as="geometry">
            <Array as="points">
              <mxPoint x="695" y="650" />
              <mxPoint x="190" y="650" />
            </Array>
          </mxGeometry>
        </mxCell>
        <mxCell id="qdFF0etR3aUKThfLzW1a-49" value="Organiser" style="shape=umlActor;verticalLabelPosition=bottom;verticalAlign=top;html=1;outlineConnect=0;" vertex="1" parent="WIyWlLk6GJQsqaUBKTNV-1">
          <mxGeometry x="680" y="310" width="30" height="60" as="geometry" />
        </mxCell>
        <mxCell id="qdFF0etR3aUKThfLzW1a-138" style="edgeStyle=orthogonalEdgeStyle;rounded=0;orthogonalLoop=1;jettySize=auto;html=1;" edge="1" parent="WIyWlLk6GJQsqaUBKTNV-1" source="qdFF0etR3aUKThfLzW1a-61" target="qdFF0etR3aUKThfLzW1a-137">
          <mxGeometry relative="1" as="geometry">
            <Array as="points">
              <mxPoint x="230" y="1020" />
            </Array>
          </mxGeometry>
        </mxCell>
        <mxCell id="qdFF0etR3aUKThfLzW1a-61" value="Professional runners" style="shape=table;html=1;whiteSpace=wrap;startSize=30;container=1;collapsible=0;childLayout=tableLayout;fixedRows=1;rowLines=0;fontStyle=1;align=center;" vertex="1" parent="WIyWlLk6GJQsqaUBKTNV-1">
          <mxGeometry x="100" y="730" width="180" height="150" as="geometry" />
        </mxCell>
        <mxCell id="qdFF0etR3aUKThfLzW1a-62" value="" style="shape=partialRectangle;html=1;whiteSpace=wrap;collapsible=0;dropTarget=0;pointerEvents=0;fillColor=none;top=0;left=0;bottom=1;right=0;points=[[0,0.5],[1,0.5]];portConstraint=eastwest;" vertex="1" parent="qdFF0etR3aUKThfLzW1a-61">
          <mxGeometry y="30" width="180" height="30" as="geometry" />
        </mxCell>
        <mxCell id="qdFF0etR3aUKThfLzW1a-63" value="1" style="shape=partialRectangle;html=1;whiteSpace=wrap;connectable=0;fillColor=none;top=0;left=0;bottom=0;right=0;overflow=hidden;" vertex="1" parent="qdFF0etR3aUKThfLzW1a-62">
          <mxGeometry width="40" height="30" as="geometry" />
        </mxCell>
        <mxCell id="qdFF0etR3aUKThfLzW1a-64" value="Placement" style="shape=partialRectangle;html=1;whiteSpace=wrap;connectable=0;fillColor=#1ba1e2;top=0;left=0;bottom=0;right=0;align=left;spacingLeft=6;overflow=hidden;strokeColor=#006EAF;fontColor=#ffffff;" vertex="1" parent="qdFF0etR3aUKThfLzW1a-62">
          <mxGeometry x="40" width="140" height="30" as="geometry" />
        </mxCell>
        <mxCell id="qdFF0etR3aUKThfLzW1a-65" value="" style="shape=partialRectangle;html=1;whiteSpace=wrap;collapsible=0;dropTarget=0;pointerEvents=0;fillColor=none;top=0;left=0;bottom=0;right=0;points=[[0,0.5],[1,0.5]];portConstraint=eastwest;" vertex="1" parent="qdFF0etR3aUKThfLzW1a-61">
          <mxGeometry y="60" width="180" height="30" as="geometry" />
        </mxCell>
        <mxCell id="qdFF0etR3aUKThfLzW1a-66" value="2" style="shape=partialRectangle;html=1;whiteSpace=wrap;connectable=0;fillColor=none;top=0;left=0;bottom=0;right=0;overflow=hidden;" vertex="1" parent="qdFF0etR3aUKThfLzW1a-65">
          <mxGeometry width="40" height="30" as="geometry" />
        </mxCell>
        <mxCell id="qdFF0etR3aUKThfLzW1a-67" value="Name" style="shape=partialRectangle;html=1;whiteSpace=wrap;connectable=0;fillColor=#f8cecc;top=0;left=0;bottom=0;right=0;align=left;spacingLeft=6;overflow=hidden;strokeColor=#b85450;" vertex="1" parent="qdFF0etR3aUKThfLzW1a-65">
          <mxGeometry x="40" width="140" height="30" as="geometry" />
        </mxCell>
        <mxCell id="qdFF0etR3aUKThfLzW1a-68" value="" style="shape=partialRectangle;html=1;whiteSpace=wrap;collapsible=0;dropTarget=0;pointerEvents=0;fillColor=none;top=0;left=0;bottom=0;right=0;points=[[0,0.5],[1,0.5]];portConstraint=eastwest;" vertex="1" parent="qdFF0etR3aUKThfLzW1a-61">
          <mxGeometry y="90" width="180" height="30" as="geometry" />
        </mxCell>
        <mxCell id="qdFF0etR3aUKThfLzW1a-69" value="3" style="shape=partialRectangle;html=1;whiteSpace=wrap;connectable=0;fillColor=none;top=0;left=0;bottom=0;right=0;overflow=hidden;" vertex="1" parent="qdFF0etR3aUKThfLzW1a-68">
          <mxGeometry width="40" height="30" as="geometry" />
        </mxCell>
        <mxCell id="qdFF0etR3aUKThfLzW1a-70" value="World Ranking" style="shape=partialRectangle;html=1;whiteSpace=wrap;connectable=0;fillColor=#e1d5e7;top=0;left=0;bottom=0;right=0;align=left;spacingLeft=6;overflow=hidden;strokeColor=#9673a6;" vertex="1" parent="qdFF0etR3aUKThfLzW1a-68">
          <mxGeometry x="40" width="140" height="30" as="geometry" />
        </mxCell>
        <mxCell id="qdFF0etR3aUKThfLzW1a-83" style="shape=partialRectangle;html=1;whiteSpace=wrap;collapsible=0;dropTarget=0;pointerEvents=0;fillColor=none;top=0;left=0;bottom=0;right=0;points=[[0,0.5],[1,0.5]];portConstraint=eastwest;" vertex="1" parent="qdFF0etR3aUKThfLzW1a-61">
          <mxGeometry y="120" width="180" height="30" as="geometry" />
        </mxCell>
        <mxCell id="qdFF0etR3aUKThfLzW1a-84" value="4" style="shape=partialRectangle;html=1;whiteSpace=wrap;connectable=0;fillColor=none;top=0;left=0;bottom=0;right=0;overflow=hidden;" vertex="1" parent="qdFF0etR3aUKThfLzW1a-83">
          <mxGeometry width="40" height="30" as="geometry" />
        </mxCell>
        <mxCell id="qdFF0etR3aUKThfLzW1a-85" value="Time" style="shape=partialRectangle;html=1;whiteSpace=wrap;connectable=0;fillColor=#e3c800;top=0;left=0;bottom=0;right=0;align=left;spacingLeft=6;overflow=hidden;strokeColor=#B09500;fontColor=#ffffff;" vertex="1" parent="qdFF0etR3aUKThfLzW1a-83">
          <mxGeometry x="40" width="140" height="30" as="geometry" />
        </mxCell>
        <mxCell id="qdFF0etR3aUKThfLzW1a-139" style="edgeStyle=orthogonalEdgeStyle;rounded=0;orthogonalLoop=1;jettySize=auto;html=1;entryX=0.5;entryY=0;entryDx=0;entryDy=0;entryPerimeter=0;" edge="1" parent="WIyWlLk6GJQsqaUBKTNV-1" source="qdFF0etR3aUKThfLzW1a-73" target="qdFF0etR3aUKThfLzW1a-137">
          <mxGeometry relative="1" as="geometry" />
        </mxCell>
        <mxCell id="qdFF0etR3aUKThfLzW1a-73" value="Amateurs" style="shape=table;html=1;whiteSpace=wrap;startSize=30;container=1;collapsible=0;childLayout=tableLayout;fixedRows=1;rowLines=0;fontStyle=1;align=center;" vertex="1" parent="WIyWlLk6GJQsqaUBKTNV-1">
          <mxGeometry x="340" y="732.5" width="180" height="155" as="geometry" />
        </mxCell>
        <mxCell id="qdFF0etR3aUKThfLzW1a-74" value="" style="shape=partialRectangle;html=1;whiteSpace=wrap;collapsible=0;dropTarget=0;pointerEvents=0;fillColor=none;top=0;left=0;bottom=1;right=0;points=[[0,0.5],[1,0.5]];portConstraint=eastwest;" vertex="1" parent="qdFF0etR3aUKThfLzW1a-73">
          <mxGeometry y="30" width="180" height="30" as="geometry" />
        </mxCell>
        <mxCell id="qdFF0etR3aUKThfLzW1a-75" value="1" style="shape=partialRectangle;html=1;whiteSpace=wrap;connectable=0;fillColor=none;top=0;left=0;bottom=0;right=0;overflow=hidden;" vertex="1" parent="qdFF0etR3aUKThfLzW1a-74">
          <mxGeometry width="40" height="30" as="geometry" />
        </mxCell>
        <mxCell id="qdFF0etR3aUKThfLzW1a-76" value="Ama-Placement" style="shape=partialRectangle;html=1;whiteSpace=wrap;connectable=0;fillColor=#b1ddf0;top=0;left=0;bottom=0;right=0;align=left;spacingLeft=6;overflow=hidden;strokeColor=#10739e;" vertex="1" parent="qdFF0etR3aUKThfLzW1a-74">
          <mxGeometry x="40" width="140" height="30" as="geometry" />
        </mxCell>
        <mxCell id="qdFF0etR3aUKThfLzW1a-77" value="" style="shape=partialRectangle;html=1;whiteSpace=wrap;collapsible=0;dropTarget=0;pointerEvents=0;fillColor=none;top=0;left=0;bottom=0;right=0;points=[[0,0.5],[1,0.5]];portConstraint=eastwest;" vertex="1" parent="qdFF0etR3aUKThfLzW1a-73">
          <mxGeometry y="60" width="180" height="30" as="geometry" />
        </mxCell>
        <mxCell id="qdFF0etR3aUKThfLzW1a-78" value="2" style="shape=partialRectangle;html=1;whiteSpace=wrap;connectable=0;fillColor=none;top=0;left=0;bottom=0;right=0;overflow=hidden;" vertex="1" parent="qdFF0etR3aUKThfLzW1a-77">
          <mxGeometry width="40" height="30" as="geometry" />
        </mxCell>
        <mxCell id="qdFF0etR3aUKThfLzW1a-79" value="Name" style="shape=partialRectangle;html=1;whiteSpace=wrap;connectable=0;fillColor=#f8cecc;top=0;left=0;bottom=0;right=0;align=left;spacingLeft=6;overflow=hidden;strokeColor=#b85450;" vertex="1" parent="qdFF0etR3aUKThfLzW1a-77">
          <mxGeometry x="40" width="140" height="30" as="geometry" />
        </mxCell>
        <mxCell id="qdFF0etR3aUKThfLzW1a-80" value="" style="shape=partialRectangle;html=1;whiteSpace=wrap;collapsible=0;dropTarget=0;pointerEvents=0;fillColor=none;top=0;left=0;bottom=0;right=0;points=[[0,0.5],[1,0.5]];portConstraint=eastwest;" vertex="1" parent="qdFF0etR3aUKThfLzW1a-73">
          <mxGeometry y="90" width="180" height="30" as="geometry" />
        </mxCell>
        <mxCell id="qdFF0etR3aUKThfLzW1a-81" value="3" style="shape=partialRectangle;html=1;whiteSpace=wrap;connectable=0;fillColor=none;top=0;left=0;bottom=0;right=0;overflow=hidden;" vertex="1" parent="qdFF0etR3aUKThfLzW1a-80">
          <mxGeometry width="40" height="30" as="geometry" />
        </mxCell>
        <mxCell id="qdFF0etR3aUKThfLzW1a-82" value="Time" style="shape=partialRectangle;html=1;whiteSpace=wrap;connectable=0;fillColor=#e3c800;top=0;left=0;bottom=0;right=0;align=left;spacingLeft=6;overflow=hidden;strokeColor=#B09500;fontColor=#ffffff;" vertex="1" parent="qdFF0etR3aUKThfLzW1a-80">
          <mxGeometry x="40" width="140" height="30" as="geometry" />
        </mxCell>
        <mxCell id="qdFF0etR3aUKThfLzW1a-86" style="shape=partialRectangle;html=1;whiteSpace=wrap;collapsible=0;dropTarget=0;pointerEvents=0;fillColor=none;top=0;left=0;bottom=0;right=0;points=[[0,0.5],[1,0.5]];portConstraint=eastwest;" vertex="1" parent="qdFF0etR3aUKThfLzW1a-73">
          <mxGeometry y="120" width="180" height="30" as="geometry" />
        </mxCell>
        <mxCell id="qdFF0etR3aUKThfLzW1a-87" value="4" style="shape=partialRectangle;html=1;whiteSpace=wrap;connectable=0;fillColor=none;top=0;left=0;bottom=0;right=0;overflow=hidden;" vertex="1" parent="qdFF0etR3aUKThfLzW1a-86">
          <mxGeometry width="40" height="30" as="geometry" />
        </mxCell>
        <mxCell id="qdFF0etR3aUKThfLzW1a-88" value="Charity" style="shape=partialRectangle;html=1;whiteSpace=wrap;connectable=0;fillColor=#ffe6cc;top=0;left=0;bottom=0;right=0;align=left;spacingLeft=6;overflow=hidden;strokeColor=#d79b00;" vertex="1" parent="qdFF0etR3aUKThfLzW1a-86">
          <mxGeometry x="40" width="140" height="30" as="geometry" />
        </mxCell>
        <mxCell id="qdFF0etR3aUKThfLzW1a-140" style="edgeStyle=orthogonalEdgeStyle;rounded=0;orthogonalLoop=1;jettySize=auto;html=1;" edge="1" parent="WIyWlLk6GJQsqaUBKTNV-1" source="qdFF0etR3aUKThfLzW1a-90" target="qdFF0etR3aUKThfLzW1a-137">
          <mxGeometry relative="1" as="geometry">
            <Array as="points">
              <mxPoint x="660" y="1010" />
            </Array>
          </mxGeometry>
        </mxCell>
        <mxCell id="qdFF0etR3aUKThfLzW1a-90" value="Fancy Dress Runners" style="shape=table;html=1;whiteSpace=wrap;startSize=30;container=1;collapsible=0;childLayout=tableLayout;fixedRows=1;rowLines=0;fontStyle=1;align=center;" vertex="1" parent="WIyWlLk6GJQsqaUBKTNV-1">
          <mxGeometry x="570" y="720" width="180" height="180" as="geometry" />
        </mxCell>
        <mxCell id="qdFF0etR3aUKThfLzW1a-91" value="" style="shape=partialRectangle;html=1;whiteSpace=wrap;collapsible=0;dropTarget=0;pointerEvents=0;fillColor=none;top=0;left=0;bottom=1;right=0;points=[[0,0.5],[1,0.5]];portConstraint=eastwest;" vertex="1" parent="qdFF0etR3aUKThfLzW1a-90">
          <mxGeometry y="30" width="180" height="30" as="geometry" />
        </mxCell>
        <mxCell id="qdFF0etR3aUKThfLzW1a-92" value="1" style="shape=partialRectangle;html=1;whiteSpace=wrap;connectable=0;fillColor=none;top=0;left=0;bottom=0;right=0;overflow=hidden;" vertex="1" parent="qdFF0etR3aUKThfLzW1a-91">
          <mxGeometry width="40" height="30" as="geometry" />
        </mxCell>
        <mxCell id="qdFF0etR3aUKThfLzW1a-93" value="Ama-Placement" style="shape=partialRectangle;html=1;whiteSpace=wrap;connectable=0;fillColor=#cce5ff;top=0;left=0;bottom=0;right=0;align=left;spacingLeft=6;overflow=hidden;strokeColor=#36393d;" vertex="1" parent="qdFF0etR3aUKThfLzW1a-91">
          <mxGeometry x="40" width="140" height="30" as="geometry" />
        </mxCell>
        <mxCell id="qdFF0etR3aUKThfLzW1a-94" value="" style="shape=partialRectangle;html=1;whiteSpace=wrap;collapsible=0;dropTarget=0;pointerEvents=0;fillColor=none;top=0;left=0;bottom=0;right=0;points=[[0,0.5],[1,0.5]];portConstraint=eastwest;" vertex="1" parent="qdFF0etR3aUKThfLzW1a-90">
          <mxGeometry y="60" width="180" height="30" as="geometry" />
        </mxCell>
        <mxCell id="qdFF0etR3aUKThfLzW1a-95" value="2" style="shape=partialRectangle;html=1;whiteSpace=wrap;connectable=0;fillColor=none;top=0;left=0;bottom=0;right=0;overflow=hidden;" vertex="1" parent="qdFF0etR3aUKThfLzW1a-94">
          <mxGeometry width="40" height="30" as="geometry" />
        </mxCell>
        <mxCell id="qdFF0etR3aUKThfLzW1a-96" value="Name" style="shape=partialRectangle;html=1;whiteSpace=wrap;connectable=0;fillColor=#f8cecc;top=0;left=0;bottom=0;right=0;align=left;spacingLeft=6;overflow=hidden;strokeColor=#b85450;" vertex="1" parent="qdFF0etR3aUKThfLzW1a-94">
          <mxGeometry x="40" width="140" height="30" as="geometry" />
        </mxCell>
        <mxCell id="qdFF0etR3aUKThfLzW1a-97" value="" style="shape=partialRectangle;html=1;whiteSpace=wrap;collapsible=0;dropTarget=0;pointerEvents=0;fillColor=none;top=0;left=0;bottom=0;right=0;points=[[0,0.5],[1,0.5]];portConstraint=eastwest;" vertex="1" parent="qdFF0etR3aUKThfLzW1a-90">
          <mxGeometry y="90" width="180" height="30" as="geometry" />
        </mxCell>
        <mxCell id="qdFF0etR3aUKThfLzW1a-98" value="3" style="shape=partialRectangle;html=1;whiteSpace=wrap;connectable=0;fillColor=none;top=0;left=0;bottom=0;right=0;overflow=hidden;" vertex="1" parent="qdFF0etR3aUKThfLzW1a-97">
          <mxGeometry width="40" height="30" as="geometry" />
        </mxCell>
        <mxCell id="qdFF0etR3aUKThfLzW1a-99" value="Time" style="shape=partialRectangle;html=1;whiteSpace=wrap;connectable=0;fillColor=#e3c800;top=0;left=0;bottom=0;right=0;align=left;spacingLeft=6;overflow=hidden;strokeColor=#B09500;fontColor=#ffffff;" vertex="1" parent="qdFF0etR3aUKThfLzW1a-97">
          <mxGeometry x="40" width="140" height="30" as="geometry" />
        </mxCell>
        <mxCell id="qdFF0etR3aUKThfLzW1a-100" style="shape=partialRectangle;html=1;whiteSpace=wrap;collapsible=0;dropTarget=0;pointerEvents=0;fillColor=none;top=0;left=0;bottom=0;right=0;points=[[0,0.5],[1,0.5]];portConstraint=eastwest;" vertex="1" parent="qdFF0etR3aUKThfLzW1a-90">
          <mxGeometry y="120" width="180" height="30" as="geometry" />
        </mxCell>
        <mxCell id="qdFF0etR3aUKThfLzW1a-101" value="4" style="shape=partialRectangle;html=1;whiteSpace=wrap;connectable=0;fillColor=none;top=0;left=0;bottom=0;right=0;overflow=hidden;" vertex="1" parent="qdFF0etR3aUKThfLzW1a-100">
          <mxGeometry width="40" height="30" as="geometry" />
        </mxCell>
        <mxCell id="qdFF0etR3aUKThfLzW1a-102" value="Charity" style="shape=partialRectangle;html=1;whiteSpace=wrap;connectable=0;fillColor=#ffcc99;top=0;left=0;bottom=0;right=0;align=left;spacingLeft=6;overflow=hidden;strokeColor=#36393d;" vertex="1" parent="qdFF0etR3aUKThfLzW1a-100">
          <mxGeometry x="40" width="140" height="30" as="geometry" />
        </mxCell>
        <mxCell id="qdFF0etR3aUKThfLzW1a-103" style="shape=partialRectangle;html=1;whiteSpace=wrap;collapsible=0;dropTarget=0;pointerEvents=0;fillColor=none;top=0;left=0;bottom=0;right=0;points=[[0,0.5],[1,0.5]];portConstraint=eastwest;" vertex="1" parent="qdFF0etR3aUKThfLzW1a-90">
          <mxGeometry y="150" width="180" height="30" as="geometry" />
        </mxCell>
        <mxCell id="qdFF0etR3aUKThfLzW1a-104" value="5" style="shape=partialRectangle;html=1;whiteSpace=wrap;connectable=0;fillColor=none;top=0;left=0;bottom=0;right=0;overflow=hidden;" vertex="1" parent="qdFF0etR3aUKThfLzW1a-103">
          <mxGeometry width="40" height="30" as="geometry" />
        </mxCell>
        <mxCell id="qdFF0etR3aUKThfLzW1a-105" value="Dress" style="shape=partialRectangle;html=1;whiteSpace=wrap;connectable=0;fillColor=#a20025;top=0;left=0;bottom=0;right=0;align=left;spacingLeft=6;overflow=hidden;strokeColor=#6F0000;fontColor=#ffffff;" vertex="1" parent="qdFF0etR3aUKThfLzW1a-103">
          <mxGeometry x="40" width="140" height="30" as="geometry" />
        </mxCell>
        <mxCell id="qdFF0etR3aUKThfLzW1a-122" style="edgeStyle=orthogonalEdgeStyle;rounded=0;orthogonalLoop=1;jettySize=auto;html=1;entryX=-0.011;entryY=-0.067;entryDx=0;entryDy=0;entryPerimeter=0;" edge="1" parent="WIyWlLk6GJQsqaUBKTNV-1" source="qdFF0etR3aUKThfLzW1a-110" target="qdFF0etR3aUKThfLzW1a-17">
          <mxGeometry relative="1" as="geometry" />
        </mxCell>
        <mxCell id="qdFF0etR3aUKThfLzW1a-123" style="edgeStyle=orthogonalEdgeStyle;rounded=0;orthogonalLoop=1;jettySize=auto;html=1;entryX=0;entryY=0.5;entryDx=0;entryDy=0;" edge="1" parent="WIyWlLk6GJQsqaUBKTNV-1" source="qdFF0etR3aUKThfLzW1a-110" target="qdFF0etR3aUKThfLzW1a-37">
          <mxGeometry relative="1" as="geometry" />
        </mxCell>
        <mxCell id="qdFF0etR3aUKThfLzW1a-110" value="User Input(Switch Statement" style="shape=table;html=1;whiteSpace=wrap;startSize=30;container=1;collapsible=0;childLayout=tableLayout;fixedRows=1;rowLines=0;fontStyle=1;align=center;" vertex="1" parent="WIyWlLk6GJQsqaUBKTNV-1">
          <mxGeometry x="100" y="270" width="180" height="140" as="geometry" />
        </mxCell>
        <mxCell id="qdFF0etR3aUKThfLzW1a-111" value="" style="shape=partialRectangle;html=1;whiteSpace=wrap;collapsible=0;dropTarget=0;pointerEvents=0;fillColor=none;top=0;left=0;bottom=1;right=0;points=[[0,0.5],[1,0.5]];portConstraint=eastwest;" vertex="1" parent="qdFF0etR3aUKThfLzW1a-110">
          <mxGeometry y="30" width="180" height="20" as="geometry" />
        </mxCell>
        <mxCell id="qdFF0etR3aUKThfLzW1a-112" value="1" style="shape=partialRectangle;html=1;whiteSpace=wrap;connectable=0;fillColor=none;top=0;left=0;bottom=0;right=0;overflow=hidden;" vertex="1" parent="qdFF0etR3aUKThfLzW1a-111">
          <mxGeometry width="40" height="20" as="geometry" />
        </mxCell>
        <mxCell id="qdFF0etR3aUKThfLzW1a-113" value="professional" style="shape=partialRectangle;html=1;whiteSpace=wrap;connectable=0;fillColor=none;top=0;left=0;bottom=0;right=0;align=left;spacingLeft=6;overflow=hidden;" vertex="1" parent="qdFF0etR3aUKThfLzW1a-111">
          <mxGeometry x="40" width="140" height="20" as="geometry" />
        </mxCell>
        <mxCell id="qdFF0etR3aUKThfLzW1a-114" value="" style="shape=partialRectangle;html=1;whiteSpace=wrap;collapsible=0;dropTarget=0;pointerEvents=0;fillColor=none;top=0;left=0;bottom=0;right=0;points=[[0,0.5],[1,0.5]];portConstraint=eastwest;" vertex="1" parent="qdFF0etR3aUKThfLzW1a-110">
          <mxGeometry y="50" width="180" height="30" as="geometry" />
        </mxCell>
        <mxCell id="qdFF0etR3aUKThfLzW1a-115" value="2" style="shape=partialRectangle;html=1;whiteSpace=wrap;connectable=0;fillColor=none;top=0;left=0;bottom=0;right=0;overflow=hidden;" vertex="1" parent="qdFF0etR3aUKThfLzW1a-114">
          <mxGeometry width="40" height="30" as="geometry" />
        </mxCell>
        <mxCell id="qdFF0etR3aUKThfLzW1a-116" value="Amateur" style="shape=partialRectangle;html=1;whiteSpace=wrap;connectable=0;fillColor=none;top=0;left=0;bottom=0;right=0;align=left;spacingLeft=6;overflow=hidden;" vertex="1" parent="qdFF0etR3aUKThfLzW1a-114">
          <mxGeometry x="40" width="140" height="30" as="geometry" />
        </mxCell>
        <mxCell id="qdFF0etR3aUKThfLzW1a-117" value="" style="shape=partialRectangle;html=1;whiteSpace=wrap;collapsible=0;dropTarget=0;pointerEvents=0;fillColor=none;top=0;left=0;bottom=0;right=0;points=[[0,0.5],[1,0.5]];portConstraint=eastwest;" vertex="1" parent="qdFF0etR3aUKThfLzW1a-110">
          <mxGeometry y="80" width="180" height="30" as="geometry" />
        </mxCell>
        <mxCell id="qdFF0etR3aUKThfLzW1a-118" value="3" style="shape=partialRectangle;html=1;whiteSpace=wrap;connectable=0;fillColor=none;top=0;left=0;bottom=0;right=0;overflow=hidden;" vertex="1" parent="qdFF0etR3aUKThfLzW1a-117">
          <mxGeometry width="40" height="30" as="geometry" />
        </mxCell>
        <mxCell id="qdFF0etR3aUKThfLzW1a-119" value="Fancy Dress" style="shape=partialRectangle;html=1;whiteSpace=wrap;connectable=0;fillColor=none;top=0;left=0;bottom=0;right=0;align=left;spacingLeft=6;overflow=hidden;" vertex="1" parent="qdFF0etR3aUKThfLzW1a-117">
          <mxGeometry x="40" width="140" height="30" as="geometry" />
        </mxCell>
        <mxCell id="qdFF0etR3aUKThfLzW1a-128" style="edgeStyle=orthogonalEdgeStyle;rounded=0;orthogonalLoop=1;jettySize=auto;html=1;entryX=0.5;entryY=0;entryDx=0;entryDy=0;entryPerimeter=0;" edge="1" parent="WIyWlLk6GJQsqaUBKTNV-1" source="qdFF0etR3aUKThfLzW1a-17" target="qdFF0etR3aUKThfLzW1a-49">
          <mxGeometry relative="1" as="geometry" />
        </mxCell>
        <mxCell id="qdFF0etR3aUKThfLzW1a-129" style="edgeStyle=orthogonalEdgeStyle;rounded=0;orthogonalLoop=1;jettySize=auto;html=1;" edge="1" parent="WIyWlLk6GJQsqaUBKTNV-1" source="qdFF0etR3aUKThfLzW1a-27" target="qdFF0etR3aUKThfLzW1a-49">
          <mxGeometry relative="1" as="geometry" />
        </mxCell>
        <mxCell id="qdFF0etR3aUKThfLzW1a-133" style="edgeStyle=orthogonalEdgeStyle;rounded=0;orthogonalLoop=1;jettySize=auto;html=1;" edge="1" parent="WIyWlLk6GJQsqaUBKTNV-1" source="qdFF0etR3aUKThfLzW1a-34" target="qdFF0etR3aUKThfLzW1a-49">
          <mxGeometry relative="1" as="geometry" />
        </mxCell>
        <mxCell id="qdFF0etR3aUKThfLzW1a-137" value="Competitors" style="shape=umlActor;verticalLabelPosition=bottom;verticalAlign=top;html=1;outlineConnect=0;" vertex="1" parent="WIyWlLk6GJQsqaUBKTNV-1">
          <mxGeometry x="414" y="990" width="30" height="60" as="geometry" />
        </mxCell>
        <mxCell id="qdFF0etR3aUKThfLzW1a-141" value="" style="endArrow=none;dashed=1;html=1;dashPattern=1 3;strokeWidth=2;exitX=0.294;exitY=-0.013;exitDx=0;exitDy=0;exitPerimeter=0;" edge="1" parent="WIyWlLk6GJQsqaUBKTNV-1" source="qdFF0etR3aUKThfLzW1a-61">
          <mxGeometry width="50" height="50" relative="1" as="geometry">
            <mxPoint x="390" y="700" as="sourcePoint" />
            <mxPoint x="360" y="213" as="targetPoint" />
          </mxGeometry>
        </mxCell>
        <mxCell id="qdFF0etR3aUKThfLzW1a-142" value="" style="endArrow=none;dashed=1;html=1;dashPattern=1 3;strokeWidth=2;entryX=0;entryY=1;entryDx=0;entryDy=0;" edge="1" parent="WIyWlLk6GJQsqaUBKTNV-1" target="qdFF0etR3aUKThfLzW1a-20">
          <mxGeometry width="50" height="50" relative="1" as="geometry">
            <mxPoint x="370" y="730" as="sourcePoint" />
            <mxPoint x="440" y="510" as="targetPoint" />
          </mxGeometry>
        </mxCell>
        <mxCell id="qdFF0etR3aUKThfLzW1a-143" value="" style="endArrow=none;dashed=1;html=1;dashPattern=1 3;strokeWidth=2;exitX=0.622;exitY=0;exitDx=0;exitDy=0;exitPerimeter=0;entryX=1.011;entryY=0.3;entryDx=0;entryDy=0;entryPerimeter=0;" edge="1" parent="WIyWlLk6GJQsqaUBKTNV-1" source="qdFF0etR3aUKThfLzW1a-90" target="qdFF0etR3aUKThfLzW1a-27">
          <mxGeometry width="50" height="50" relative="1" as="geometry">
            <mxPoint x="390" y="560" as="sourcePoint" />
            <mxPoint x="440" y="510" as="targetPoint" />
          </mxGeometry>
        </mxCell>
      </root>
    </mxGraphModel>
  </diagram>
</mxfile>
